<svg xmlns="http://www.w3.org/2000/svg" viewBox="3066 4524.873 72.402 86.585">
  <defs>
    <style>
      .cls-1 {
        fill: #ffc530;
      }
    </style>
  </defs>
  <path id="academics" class="cls-1" d="M19.044,99.685H89.158A1.081,1.081,0,0,0,90.3,98.542V90.306a1.081,1.081,0,0,0-1.144-1.144H68.227a28.807,28.807,0,0,0,1.487-53.3,4.692,4.692,0,0,0,.114-1.258,5.817,5.817,0,0,0-1.144-3.66h0l6.291-6.062a1.106,1.106,0,0,0,0-1.6l-.458-.458.8-.8a4,4,0,0,0,.114-5.719L73.6,14.358A3.717,3.717,0,0,0,70.743,13.1a3.971,3.971,0,0,0-2.859,1.144l-.8.8-.458-.458a1.106,1.106,0,0,0-1.6,0L29.338,48.672a1.106,1.106,0,0,0,0,1.6l1.029,1.144-2.516,2.4a1.106,1.106,0,0,0,0,1.6l4.918,5.147a1.038,1.038,0,0,0,.8.343h0a1.038,1.038,0,0,0,.8-.343l2.516-2.4.8.8a1.038,1.038,0,0,0,.8.343h0a1.038,1.038,0,0,0,.8-.343L59.42,39.75a6.976,6.976,0,0,0,3.889,1.373,6.439,6.439,0,0,0,5.6-3.2A26.417,26.417,0,1,1,35.4,75.437H47.867a1.081,1.081,0,0,0,1.144-1.144V68.117a1.081,1.081,0,0,0-1.144-1.144H20.3a1.081,1.081,0,0,0-1.144,1.144v6.176A1.081,1.081,0,0,0,20.3,75.437H32.884A.42.42,0,0,0,33,75.78,28.567,28.567,0,0,0,48.211,88.934H19.044A1.081,1.081,0,0,0,17.9,90.077v8.235C17.9,99.113,18.358,99.685,19.044,99.685Zm50.67-83.611a1.72,1.72,0,0,1,1.258-.458,1.837,1.837,0,0,1,1.258.572l1.83,1.944a1.7,1.7,0,0,1-.114,2.516l-.8.8-4.232-4.461ZM33.57,58.166l-3.317-3.431,1.716-1.6,3.317,3.431Zm4.918-1.487L31.74,49.587,65.939,17.1l6.748,7.092ZM63.309,38.95a4.124,4.124,0,0,1-2.288-.686l5.948-5.719a4.661,4.661,0,0,1,.572,2.059A4.115,4.115,0,0,1,63.309,38.95ZM21.446,69.489H46.838v3.889H21.446ZM20.188,91.45H88.015V97.4H20.188Z" transform="translate(3048.1 4511.772)"/>
</svg>
