<svg xmlns="http://www.w3.org/2000/svg" viewBox="2922 12661.001 49.792 89.369">
  <defs>
    <style>
      .cls-1 {
        fill: #fff;
      }

      .cls-2, .cls-3 {
        fill: none;
      }

      .cls-2 {
        stroke: #fff;
        stroke-miterlimit: 10;
      }
    </style>
  </defs>
  <g id="noun_267039_FFFFFF" transform="translate(2905.082 12650.813)">
    <path id="Path_50" data-name="Path 50" class="cls-1" d="M30.241,14.769V13.7H27.3v1.07a8.034,8.034,0,1,0,2.941,0Zm-1.47,12.98a5.079,5.079,0,0,1-1.47-9.942V25h2.941v-7.19a5.078,5.078,0,0,1-1.47,9.942Z" transform="translate(7.423 6.814)"/>
    <g id="Group_47" data-name="Group 47" transform="translate(25.769 57.351)">
      <path id="Path_51" data-name="Path 51" class="cls-2" d="M19.928,26.226" transform="translate(-19.928 -26.226)"/>
    </g>
    <path id="Path_52" data-name="Path 52" class="cls-3" d="M50.594,27.526a16.338,16.338,0,1,0-21.57,15.468V41.865a5.57,5.57,0,1,1,11.139,0v.879A16.352,16.352,0,0,0,50.594,27.526Z" transform="translate(1.939 1.941)"/>
    <path id="Path_53" data-name="Path 53" class="cls-3" d="M27.952,25.077v-1.72a2.629,2.629,0,1,0-5.258,0V25.18a16.292,16.292,0,0,0,2.285.179A16.464,16.464,0,0,0,27.952,25.077Z" transform="translate(11.209 20.449)"/>
    <path id="Path_54" data-name="Path 54" class="cls-3" d="M58.035,35.135A2.636,2.636,0,0,0,55.4,37.766v7.193H52.46V33.394a2.629,2.629,0,1,0-5.258,0V44.962H44.261V31.938a2.633,2.633,0,0,0-5.267,0V44.962H36.054V23.216a19.4,19.4,0,0,1-2.97.253,19.532,19.532,0,0,1-2.285-.147V64.633L23.632,44.183a2.632,2.632,0,1,0-4.967,1.741l7.984,22.261c1.1,3.155,1.479,3.155,2.741,3.155H57.982a2.664,2.664,0,0,0,2.664-2.658l.018-30.912A2.631,2.631,0,0,0,58.035,35.135Z" transform="translate(3.108 25.283)"/>
    <path id="Path_55" data-name="Path 55" class="cls-1" d="M19.859,29.467A16.338,16.338,0,1,1,42.1,44.685v3.129a19.3,19.3,0,1,0-11.139.194V44.935A16.356,16.356,0,0,1,19.859,29.467Z"/>
    <path id="Path_56" data-name="Path 56" class="cls-1" d="M59.977,38.969a5.475,5.475,0,0,0-2.685.72,5.513,5.513,0,0,0-8.975-3.858,5.478,5.478,0,0,0-7.381-2V25.3a5.57,5.57,0,1,0-11.139,0V54.116l-1.45-4.138a5.573,5.573,0,1,0-10.516,3.693l7.984,22.261c1.076,3.091,2.041,5.117,5.514,5.117H59.921a5.608,5.608,0,0,0,5.6-5.6l.018-30.912A5.571,5.571,0,0,0,59.977,38.969Zm2.614,36.482a2.664,2.664,0,0,1-2.664,2.658H31.335c-1.262,0-1.641,0-2.741-3.155L20.61,52.693a2.632,2.632,0,1,1,4.967-1.741L32.744,71.4V25.3A2.629,2.629,0,1,1,38,25.3V51.731h2.941V38.707a2.633,2.633,0,0,1,5.267,0V51.731H49.15V40.163a2.629,2.629,0,1,1,5.258,0V51.728h2.941V44.536a2.633,2.633,0,0,1,5.267,0Z" transform="translate(1.166 18.508)"/>
  </g>
</svg>
