<svg xmlns="http://www.w3.org/2000/svg" viewBox="2250.188 13604.814 31.096 31.096">
  <defs>
    <style>
      .cls-1 {
        fill: #fff;
        fill-rule: evenodd;
      }
    </style>
  </defs>
  <g id="noun_354037_FFFFFF" transform="translate(2245.188 13599.815)">
    <path id="Path_58" data-name="Path 58" class="cls-1" d="M20.508,36.093c-3.07,0-6.14.009-9.21,0a6.187,6.187,0,0,1-6.166-5,6.878,6.878,0,0,1-.125-1.35Q5,20.547,5,11.356A6.19,6.19,0,0,1,9.989,5.137a6.991,6.991,0,0,1,1.388-.13q9.171-.012,18.342,0a6.206,6.206,0,0,1,6.372,6.354q.01,9.19,0,18.381a6.208,6.208,0,0,1-6.373,6.353q-4.6.008-9.21,0Zm9.276-17.87a9.475,9.475,0,0,1-1.651,8.04,9.233,9.233,0,0,1-7.274,3.821,9.1,9.1,0,0,1-7.034-2.73,9.474,9.474,0,0,1-2.61-9.129H8.562v.4c0,3.9.023,7.8-.013,11.7a2.076,2.076,0,0,0,2.173,2.185c6.515-.019,13.031-.008,19.547-.009a1.975,1.975,0,0,0,2.177-2.16q0-5.848,0-11.7v-.422ZM26.5,20.536a6,6,0,1,0-5.964,6,6,6,0,0,0,5.964-6Zm5.947-8.885c0-.363.007-.725,0-1.088a1.926,1.926,0,0,0-1.9-1.911q-1.087-.019-2.175,0a1.931,1.931,0,0,0-1.907,1.912c-.013.725-.014,1.451,0,2.175a1.939,1.939,0,0,0,1.887,1.9q1.107.025,2.214,0a1.933,1.933,0,0,0,1.883-1.9c.009-.362,0-.725,0-1.088Z"/>
  </g>
</svg>
