<svg xmlns="http://www.w3.org/2000/svg" viewBox="-15441 1722.267 26.927 31.178"><path data-name="Path 265" d="M-15419.034 1722.267a4.971 4.971 0 0 0-4.96 4.96 4.907 4.907 0 0 0 .288 1.639l-9.079 5.27a4.955 4.955 0 1 0 .011 7.44l9.068 5.259a4.912 4.912 0 0 0-.288 1.65 4.976 4.976 0 1 0 .952-2.912l-8.8-5.093a4.908 4.908 0 0 0 0-5.259l8.8-5.093a4.955 4.955 0 1 0 4.008-7.861zm0 1.417a3.543 3.543 0 1 1-3.543 3.543 3.532 3.532 0 0 1 3.543-3.543zm-17.006 10.629a3.543 3.543 0 1 1-3.543 3.543 3.532 3.532 0 0 1 3.543-3.543zm17.006 10.629a3.543 3.543 0 1 1-3.543 3.543 3.532 3.532 0 0 1 3.543-3.543z"/></svg>