<svg xmlns="http://www.w3.org/2000/svg" viewBox="3070 4101.562 77.872 70.938">
  <defs>
    <style>
      .cls-1 {
        fill: #ffc530;
      }
    </style>
  </defs>
  <g id="student_life" transform="translate(3056.5 4083.062)">
    <path id="Path_731" data-name="Path 731" class="cls-1" d="M38.035,18.5h-3.2v7.467H16.7V18.5H13.5V89.438h3.2V80.371H34.835v9.067h3.2V64.37h5.974v14.4H53.5V82.5h-8v6.934h3.2V85.7h4.8v3.734h3.2V85.7h4.8v3.734h3.2V82.5h-8V78.771h9.6V64.37h5.867V89.438h19.2V18.5Zm-3.2,29.869v7.467H16.7V48.369ZM16.7,45.169V37.7H34.835v7.467ZM34.835,59.036V66.5H16.7V59.036Zm3.2-21.335h5.12l-5.12,5.12Zm0-3.2V29.167H88.172V34.5Zm50.137,3.2v5.12l-5.12-5.12Zm-50.137-16H88.172v4.267H38.035Zm-3.2,7.467V34.5H16.7V29.167Zm-18.135,48V69.7H34.835v7.467Zm46.4-1.6H47.209V60.85a8,8,0,1,1,16,0V75.571Zm-8-25.922a11.2,11.2,0,0,0-11.2,11.2v.32H37.928V47.3l9.6-9.6H78.358l9.707,9.707V61.17H66.3v-.32A11.2,11.2,0,0,0,55.1,49.649ZM88.172,64.37v5.12h-12.8V64.37h12.8Zm-12.8,8.321h12.8v5.12h-12.8Zm0,13.548v-5.12h12.8v5.12Z" transform="translate(0 0)"/>
  </g>
</svg>
