<svg xmlns="http://www.w3.org/2000/svg" viewBox="2249.188 13547.678 34.096 27.502">
  <defs>
    <style>
      .cls-1 {
        fill: #fff;
        fill-rule: evenodd;
      }
    </style>
  </defs>
  <g id="noun_354036_FFFFFF" transform="translate(2244.188 13533.678)">
    <path id="Path_57" data-name="Path 57" class="cls-1" d="M16.3,41.5c12.5-.311,19.33-10.713,19.33-19.751q0-.452-.02-.9A14.163,14.163,0,0,0,39.1,17.257a14.071,14.071,0,0,1-4.018,1.093,6.974,6.974,0,0,0,3.076-3.842,14.081,14.081,0,0,1-4.443,1.685,7.011,7.011,0,0,0-12.1,4.752,6.912,6.912,0,0,0,.181,1.582A19.914,19.914,0,0,1,7.367,15.272a6.917,6.917,0,0,0,2.165,9.271,7.01,7.01,0,0,1-3.17-.869c0,.029,0,.058,0,.087a6.962,6.962,0,0,0,5.613,6.809,7.05,7.05,0,0,1-3.16.119,7,7,0,0,0,6.536,4.823,14.107,14.107,0,0,1-8.689,2.973A14.293,14.293,0,0,1,5,38.389v0A19.907,19.907,0,0,0,15.309,41.5H16.3" transform="translate(0 0)"/>
  </g>
</svg>
